<svg height="114" width="91" xmlns="http://www.w3.org/2000/svg"><g fill="none" fill-rule="evenodd" transform="translate(-23 -12)"><path d="M0 0h137v137H0z"/><path d="M34.375 12c-6.256 0-11.318 5.13-11.318 11.4L23 114.6c0 6.27 5.062 11.4 11.318 11.4h68.307c6.256 0 11.375-5.13 11.375-11.4V50.931c0-3.021-1.194-5.928-3.356-8.037l-27.47-27.531C81.069 13.197 78.169 12 75.154 12zm39.813 34.2V20.55l31.28 31.35H79.876c-3.128 0-5.688-2.565-5.688-5.7z" fill="#fff" fill-rule="nonzero"/><rect fill="#121212" height="38" rx="19" width="38" x="50" y="60"/><text fill="#fff" font-family="HiraginoSans-W3, Hiragino Sans" font-size="20" font-weight="300"><tspan x="59" y="87">⬇︎</tspan></text></g></svg>