<svg height="91" width="90" xmlns="http://www.w3.org/2000/svg"><g fill="none" fill-rule="evenodd" transform="translate(0 .75)"><circle cx="45" cy="45" fill="#0971bd" r="45"/><path d="M45.627 42.474C42.112 42.474 24 32.204 24 32.204V30.6c0-1.987 1.613-3.6 3.604-3.6H63.65a3.602 3.602 0 0 1 3.606 3.6l-.029 1.8s-17.915 10.074-21.6 10.074zm0 4.95c3.854 0 21.6-9.624 21.6-9.624l.029 21.6c0 1.987-1.613 3.6-3.606 3.6H27.604A3.603 3.603 0 0 1 24 59.4l.029-21.6c-.002 0 18.083 9.624 21.598 9.624z" fill="#fff"/></g></svg>