<svg height="90" width="90" xmlns="http://www.w3.org/2000/svg"><linearGradient id="a" x1="66.67%" x2="41.67%" y1="16.67%" y2="75%"><stop offset="0" stop-color="#37aee2"/><stop offset="1" stop-color="#1e96c8"/></linearGradient><linearGradient id="b" x1="61.235%" x2="74.706%" y1="45.561%" y2="71.273%"><stop offset="0" stop-color="#eff7fc"/><stop offset="1" stop-color="#fff"/></linearGradient><g fill="none" fill-rule="evenodd"><circle cx="45" cy="45" fill="url(#a)" r="45"/><path d="M36.75 65.625c-1.458 0-1.21-.55-1.713-1.939L30.75 49.577 63.75 30" fill="#c8daea"/><path d="M36.75 65.625c1.125 0 1.622-.514 2.25-1.125l6-5.834-7.484-4.513" fill="#a9c9dd"/><path d="M37.515 54.154L55.65 67.552c2.07 1.142 3.563.55 4.079-1.921l7.381-34.786c.756-3.03-1.155-4.405-3.134-3.506L20.629 44.053c-2.958 1.187-2.941 2.838-.539 3.573l11.124 3.472 25.752-16.247c1.216-.737 2.332-.34 1.416.472" fill="url(#b)"/></g></svg>