<svg height="91" width="91" xmlns="http://www.w3.org/2000/svg"><g fill="none" fill-rule="evenodd"><path d="M.5 45.5c0-24.853 20.147-45 45-45s45 20.147 45 45-20.147 45-45 45-45-20.147-45-45z" fill="#55acee"/><path d="M44.152 37.077l.095 1.557-1.574-.191c-5.729-.73-10.734-3.21-14.983-7.372l-2.077-2.066-.536 1.525c-1.133 3.4-.409 6.991 1.952 9.407 1.26 1.334.976 1.525-1.196.73-.756-.254-1.417-.444-1.48-.35-.22.223.536 3.115 1.134 4.26.818 1.588 2.486 3.145 4.312 4.067l1.542.73-1.825.032c-1.763 0-1.826.032-1.637.7.63 2.065 3.116 4.258 5.886 5.21l1.952.668-1.7 1.017c-2.518 1.462-5.477 2.288-8.436 2.352-1.416.031-2.581.159-2.581.254 0 .318 3.84 2.097 6.075 2.796 6.704 2.066 14.668 1.176 20.649-2.351 4.249-2.51 8.498-7.5 10.481-12.33 1.07-2.574 2.14-7.277 2.14-9.533 0-1.462.095-1.653 1.858-3.4 1.039-1.017 2.014-2.13 2.203-2.447.315-.604.283-.604-1.322-.064-2.675.953-3.053.826-1.731-.604.976-1.017 2.14-2.86 2.14-3.4 0-.095-.472.064-1.007.35-.566.318-1.826.794-2.77 1.08l-1.7.54-1.542-1.048c-.85-.572-2.046-1.208-2.675-1.398-1.606-.445-4.06-.382-5.509.127-3.934 1.43-6.421 5.116-6.138 9.152z" fill="#fff"/></g></svg>