<svg height="350" width="1296" xmlns="http://www.w3.org/2000/svg"><g fill="none" fill-rule="evenodd"><g stroke-width="4"><path d="M739.403 57.001h53.602L661.192 283.995 530 57.001 582.35 56l78.842 137.011z" stroke="#4ab885"/><path d="M691.28 56.331l48.486.67-78.579 136.33-78.841-136.33h48.301l30.119 50.803z" stroke="#fff"/></g><g font-family="SourceCodePro-Regular, Source Code Pro" font-size="36"><text transform="translate(-4 -11)"><tspan fill="#4ab885" x="1108.3" y="261">Vue</tspan> <tspan fill="#fff" x="1194.7" y="261">CLI 3</tspan></text><text transform="translate(-4 -11)"><tspan fill="#4ab885" x="994" y="35">Vue</tspan> <tspan fill="#fff" x="1080.4" y="35">Router</tspan></text><text transform="translate(-4 -11)"><tspan fill="#4ab885" x="848.4" y="171">Vue</tspan> <tspan fill="#fff" x="934.8" y="171">DevTools</tspan></text><text transform="translate(-4 -11)"><tspan fill="#4ab885" x="76.4" y="360">Vue</tspan> <tspan fill="#fff" x="162.8" y="360">Material</tspan></text><text transform="translate(-4 -11)"><tspan fill="#4ab885" x="191" y="70">Vue</tspan> <tspan fill="#fff" x="277.4" y="70">Native</tspan></text><text transform="translate(-4 -11)"><tspan fill="#4ab885" x="745.4" y="296">Keen</tspan> <tspan fill="#fff" x="853.4" y="296">UI</tspan></text><text fill="#4ab885" transform="translate(-4 -11)"><tspan x="994.4" y="350">Nuxt.js</tspan></text><text fill="#4ab885" transform="translate(-4 -11)"><tspan x="331.4" y="251">Vuetify</tspan></text><text fill="#4ab885" transform="translate(-4 -11)"><tspan x=".4" y="206">Element</tspan></text></g></g></svg>