<svg height="91" width="91" xmlns="http://www.w3.org/2000/svg"><g fill="none" fill-rule="evenodd" transform="translate(.5 .25)"><circle cx="45" cy="45" fill="#25d366" r="45"/><path d="M46.483 70.036h-.01a26.735 26.735 0 0 1-12.788-3.257L19.5 70.5l3.796-13.866a26.71 26.71 0 0 1-3.572-13.377C19.73 28.503 31.734 16.5 46.483 16.5c7.158.003 13.877 2.79 18.929 7.848 5.052 5.057 7.832 11.78 7.83 18.93-.006 14.75-12.005 26.752-26.759 26.758zm-12.14-8.101l.811.482a22.207 22.207 0 0 0 11.32 3.1h.01c12.258 0 22.235-9.977 22.24-22.24a22.107 22.107 0 0 0-6.508-15.735 22.089 22.089 0 0 0-15.724-6.522c-12.268 0-22.245 9.976-22.25 22.238a22.187 22.187 0 0 0 3.4 11.836l.53.842-2.247 8.207zm25.62-12.295c-.167-.279-.613-.446-1.281-.781-.669-.335-3.956-1.952-4.57-2.175-.612-.223-1.058-.335-1.503.334-.446.67-1.727 2.176-2.117 2.622-.39.446-.78.502-1.449.167-.668-.334-2.823-1.04-5.377-3.318-1.987-1.773-3.33-3.963-3.72-4.632s-.04-1.031.294-1.365c.3-.3.669-.78 1.003-1.17.334-.391.446-.67.668-1.116.223-.447.112-.837-.055-1.172-.167-.334-1.505-3.625-2.062-4.964-.542-1.304-1.094-1.127-1.504-1.148-.39-.02-.836-.023-1.281-.023-.446 0-1.17.167-1.783.836-.613.67-2.34 2.287-2.34 5.578 0 3.291 2.395 6.47 2.73 6.916.334.447 4.714 7.2 11.421 10.096a38.4 38.4 0 0 0 3.812 1.408c1.602.51 3.06.438 4.211.265 1.285-.192 3.956-1.617 4.513-3.179.557-1.562.557-2.9.39-3.18z" fill="#fdfdfd"/></g></svg>