<svg height="89" width="90" xmlns="http://www.w3.org/2000/svg"><g fill="none" fill-rule="evenodd"><path d="M45 0C20.15 0 0 20.312 0 45.37c0 20.046 12.894 37.053 30.774 43.052 2.249.42 3.075-.984 3.075-2.183 0-1.081-.042-4.655-.061-8.447-12.52 2.745-15.161-5.353-15.161-5.353-2.047-5.244-4.997-6.638-4.997-6.638-4.083-2.816.308-2.758.308-2.758 4.519.32 6.898 4.675 6.898 4.675 4.014 6.936 10.527 4.931 13.095 3.772.404-2.933 1.57-4.934 2.857-6.067C26.793 64.276 16.286 60.385 16.286 43c0-4.954 1.758-9.001 4.637-12.178-.468-1.143-2.008-5.758.436-12.007 0 0 3.778-1.22 12.378 4.65 3.59-1.005 7.44-1.509 11.263-1.526 3.825.017 7.677.521 11.274 1.527 8.589-5.87 12.362-4.651 12.362-4.651 2.45 6.25.909 10.864.441 12.007C71.963 34 73.71 38.047 73.71 43c0 17.426-10.528 21.263-20.548 22.386 1.614 1.408 3.052 4.169 3.052 8.402 0 6.07-.052 10.956-.052 12.45 0 1.208.81 2.623 3.091 2.177C77.122 82.41 90 65.409 90 45.37 90 20.312 69.852 0 45 0" fill="#fff"/><path d="M17.177 64.83c-.1.224-.45.29-.77.137-.326-.146-.509-.45-.403-.674.096-.23.448-.294.773-.14.327.146.513.454.4.678m1.819 2.029c-.214.198-.633.106-.917-.208-.294-.313-.349-.732-.132-.933.221-.199.627-.106.922.207.294.317.35.733.127.934m1.77 2.587c-.274.191-.724.012-1.002-.387-.276-.4-.276-.879.006-1.07.278-.193.722-.02 1.004.376.274.406.274.886-.007 1.081m2.426 2.5c-.246.271-.77.198-1.154-.172-.393-.362-.502-.876-.255-1.148.249-.272.776-.196 1.163.172.39.361.509.88.246 1.148m3.347 1.451c-.108.352-.613.512-1.122.362-.508-.154-.84-.566-.738-.921.106-.354.613-.521 1.125-.361.508.153.841.562.735.92m3.676.27c.013.37-.419.677-.953.684-.537.012-.971-.288-.977-.653 0-.374.422-.678.959-.687.534-.01.971.287.971.655m3.42-.582c.065.361-.306.733-.837.832-.521.095-1.004-.128-1.07-.487-.065-.37.313-.742.834-.838.531-.092 1.006.125 1.074.493" fill="#161514"/></g></svg>