<svg height="302" width="1287" xmlns="http://www.w3.org/2000/svg"><g fill="none" fill-rule="evenodd" stroke="#fff"><g stroke-linejoin="round" stroke-width="7.529"><path d="M1100.5 290.5h-161c-6.348 0-11.5-4.241-11.5-9.467V15.967c0-5.226 5.152-9.467 11.5-9.467h161c6.348 0 11.5 4.241 11.5 9.467v265.066c0 5.226-5.152 9.467-11.5 9.467zM1114 23.585v17.17M1087.25 4.5h17.5m9.25 44.085v17.17"/><path d="M4 4h399v240H4zm146 294h106m-53-54v54" stroke-linecap="round"/><path d="M1275.25 291h-80.5c-3.174 0-5.75-2.554-5.75-5.7V125.7c0-3.146 2.576-5.7 5.75-5.7h80.5c3.174 0 5.75 2.554 5.75 5.7v159.6c0 3.146-2.576 5.7-5.75 5.7z"/><path d="M1252.25 137h-34.5c-3.174 0-5.75-2.539-5.75-5.667V120h46v11.333c0 3.128-2.576 5.667-5.75 5.667z"/><path d="M1283 147.085V164m-97-6.5v9.372m0 10.857v9.372" stroke-linecap="round"/><path d="M1187 141.114v4.386" stroke-linecap="square"/></g><rect height="224.47" rx="17" stroke-width="7.53" width="344.47" x="493.765" y="37.765"/><path d="M531 60h275v181H531z" stroke-width="2"/><rect height="7" rx="3.5" stroke-width="2" width="67" x="636" y="263"/><g stroke-linecap="round" stroke-width="7"><path d="M871.145 278.824c3.65 0 7.494-1.065 10.342-4.674 1.616-2.048 3.42-6.15 3.42-8.268 0-5.847-8.514-4.706-14.235-4.706"/><path d="M457.373 261.176h422.405M465.43 278.824h403.99" stroke-linejoin="round"/><path d="M464.855 278.824c-3.65 0-7.494-1.065-10.342-4.674-1.616-2.048-3.42-6.15-3.42-8.268 0-5.847 8.514-4.706 14.235-4.706"/><path d="M877.476 261.086H458.21m412.36 17.738H466.58" stroke-linejoin="round"/></g></g></svg>