<svg height="549" width="305" xmlns="http://www.w3.org/2000/svg"><g fill="none" fill-rule="evenodd"><path d="M151.8 35.5l1.35 509.4H25.913L7.8 526.87V19.75L19.753 4h60.722v21.821L93.75 35.5z" fill="#fff" opacity=".05"/><g stroke="#fff" stroke-linejoin="round" stroke-width="6.776"><path d="M279.488 544.9H25.913c-9.999 0-18.113-8.077-18.113-18.03V22.03C7.8 12.077 15.914 4 25.913 4h253.575c9.998 0 18.112 8.077 18.112 18.03v504.84c0 9.953-8.114 18.03-18.112 18.03z"/><path d="M207.488 35.5H98.813C88.814 35.5 80.7 30.796 80.7 25V4h144.9v21c0 5.796-8.114 10.5-18.112 10.5z"/><path d="M301 89.866v53.281M4 123.145v29.523m0 33.477v29.523" stroke-linecap="round"/><path d="M4 70.021v13.815" stroke-linecap="square"/></g><g transform="translate(35.7 310.9)"><circle cx="131.4" cy="76.5" opacity=".16" r="6.3" stroke="#fff" stroke-width=".9"/><circle cx="158.4" cy="76.5" opacity=".16" r="6.3" stroke="#fff" stroke-width=".9"/><circle cx="185.4" cy="76.5" opacity=".16" r="6.3" stroke="#fff" stroke-width=".9"/><circle cx="212.4" cy="76.5" opacity=".16" r="6.3" stroke="#fff" stroke-width=".9"/><path d="M116.1 157.5H75.3c-11.267 0-20.4-9.066-20.4-20.25S64.033 117 75.3 117h40.8" fill="#bb86fc" stroke="#bb86fc" stroke-width="3.6"/><path d="M116.55 117h40.5c11.184 0 20.25 9.066 20.25 20.25s-9.066 20.25-20.25 20.25h-40.5" opacity=".05" stroke="#fff" stroke-width="3.6"/><text fill="#fff" font-family="Roboto-Medium, Roboto" font-size="22.5" font-weight="400"><tspan x="68.328" y="145.2">SIG</tspan></text><g stroke="#fff"><rect height="6.3" opacity=".16" rx="1.8" stroke-width="1.8" width="93.6" x="115.2" y="14.4"/><path d="M116.1 133.2H162a1.8 1.8 0 0 1 1.8 1.8v4.5a1.8 1.8 0 0 1-1.8 1.8h-45.9" opacity=".16" stroke-width="1.8"/><path d="M.45.45h115.2v33.367H.45z" fill="#fff" stroke-width=".9"/><path d="M114.75 1.35h113.4v31.567h-113.4zm0 58.5h113.4v31.567h-113.4z" opacity=".05" stroke-width="2.7"/><path d="M.45 58.95h115.2v33.367H.45z" fill="#fff" stroke-width=".9"/></g><text fill="#000" font-family="Roboto-Medium, Roboto" font-size="22.5" font-weight="400"><tspan x="23.421" y="25.5">USER NA</tspan></text><text fill="#000" font-family="Roboto-Medium, Roboto" font-size="22.5" font-weight="400"><tspan x="24.355" y="84">PASSWO</tspan></text><path d="M106.493 145.353v-15.3h2.24l5.86 14.05" stroke="#fff" stroke-width="2.7"/></g><g stroke="#fff" stroke-width="9" stroke-linejoin="round"><path d="M151.8 103c-42.747 0-77.4 34.653-77.4 77.4 0 42.747 34.653 77.4 77.4 77.4" fill="#fff" opacity=".16"/><path d="M150.9 103c42.747 0 77.4 34.653 77.4 77.4 0 42.747-34.653 77.4-77.4 77.4" opacity=".05"/><path d="M151.8 154.3c-6.462 0-11.7 5.238-11.7 11.7s5.238 11.7 11.7 11.7" fill="#fff"/><path d="M151.8 154.3c6.462 0 11.7 5.238 11.7 11.7s-5.238 11.7-11.7 11.7" fill="#fff" opacity=".16"/></g><path d="M136.098 180.568a32.946 32.946 0 0 0-10.66 7.032c-6.128 6.043-9.638 14.224-9.638 22.95a2.25 2.25 0 1 0 4.5 0c0-7.506 3.016-14.538 8.298-19.745a28.446 28.446 0 0 1 9.203-6.072 2.25 2.25 0 0 0-1.703-4.165z" fill="#fff" fill-rule="nonzero"/><path d="M165.8 184.733a28.446 28.446 0 0 1 9.202 6.072c5.282 5.207 8.298 12.239 8.298 19.745a2.25 2.25 0 1 0 4.5 0c0-8.726-3.51-16.907-9.639-22.95a32.946 32.946 0 0 0-10.659-7.032 2.25 2.25 0 1 0-1.703 4.165z" fill="#fff" fill-rule="nonzero" opacity=".16"/></g></svg>