<svg height="114" viewBox="0 0 91 114" width="91" xmlns="http://www.w3.org/2000/svg"><g fill="none" fill-rule="evenodd" transform="translate(-23 -12)"><path d="m0 0h137v137h-137z"/><path d="m34.375 12c-6.25625 0-11.318125 5.13-11.318125 11.4l-.056875 91.2c0 6.27 5.061875 11.4 11.318125 11.4h68.306875c6.25625 0 11.375-5.13 11.375-11.4v-63.669c0-3.021-1.194375-5.928-3.355625-8.037l-27.470625-27.531c-2.104375-2.166-5.005-3.363-8.019375-3.363zm39.8125 34.2v-25.65l31.28125 31.35h-25.59375c-3.128125 0-5.6875-2.565-5.6875-5.7z" fill="#fff" fill-rule="nonzero"/><rect fill="#121212" height="38" rx="19" width="38" x="50" y="60"/><text fill="#fff" font-family="HiraginoSans-W3, Hiragino Sans" font-size="20" font-weight="300"><tspan x="59" y="87">⬇︎</tspan></text></g></svg>