<svg height="89" viewBox="0 0 90 89" width="90" xmlns="http://www.w3.org/2000/svg"><g fill="none" fill-rule="evenodd"><path d="m45.0003726 0c-24.849762 0-45.0003726 20.3124971-45.0003726 45.3702868 0 20.0457809 12.8939764 37.052501 30.7740012 43.0517349 2.2489754.419984 3.074643-.9842199 3.074643-2.1825641 0-1.0818907-.0417305-4.6558864-.0611054-8.4470116-12.5191472 2.7445463-15.1608363-5.3531048-15.1608363-5.3531048-2.0470296-5.2441644-4.996481-6.6386013-4.996481-6.6386013-4.0828814-2.8159209.3077624-2.7580698.3077624-2.7580698 4.5188159.3200593 6.8981991 4.6754205 6.8981991 4.6754205 4.013579 6.9361212 10.5272614 4.9308669 13.095177 3.771591.4038915-2.9323744 1.5701097-4.9338721 2.8570482-6.0668521-9.9951977-1.1472549-20.5023391-5.0375533-20.5023391-22.4221838 0-4.9534063 1.757897-9.0007292 4.6365556-12.1780317-.4672324-1.142747-2.0075347-5.7573112.4359346-12.0067323 0 0 3.778845-1.219381 12.3783068 4.6506271 3.5895674-1.0052567 7.4392051-1.5093877 11.2635065-1.5266679 3.8243014.0172802 7.6769199.5214112 11.2731939 1.5266679 8.5890292-5.8700081 12.3626579-4.6506271 12.3626579-4.6506271 2.4494307 6.2494211.9083833 10.8639853.4411509 12.0067323 2.8853653 3.1773025 4.6313393 7.2246254 4.6313393 12.1780317 0 17.4259527-10.5272615 21.2629079-20.5477955 22.3861208 1.6140757 1.4079605 3.0522873 4.1690356 3.0522873 8.4019328 0 6.0706087-.0521631 10.9563968-.0521631 12.4507583 0 1.2073599.8100186 2.6220822 3.091037 2.1765536 17.8703374-6.0059957 30.7479197-23.0067053 30.7479197-43.0457244 0-25.0577897-20.1476299-45.3702868-44.9996274-45.3702868" fill="#fff"/><path d="m17.1766116 64.8305001c-.0989256.2231712-.45.2901226-.7698347.1368783-.3257852-.1465491-.5087604-.4508059-.4031405-.674721.0966942-.2298664.4485124-.2938421.7735537-.139854.3265289.1465491.5124793.4537815.3994215.6776967m1.8193388 2.0293704c-.2142149.1986224-.6329752.1063783-.9171074-.2075492-.2938017-.3131837-.348843-.7320017-.1316529-.9335997.2209091-.1986224.6270248-.1056344.9215702.2075492.2938017.3169032.3510744.7327456.1271901.9335997m1.7709917 2.5872985c-.2752066.1911834-.7252066.0119025-1.0033884-.387574-.2752066-.3994765-.2752066-.8785508.0059504-1.070478.2789257-.1919273.7222314-.0193415 1.0041323.3771593.2744628.4061717.2744628.8852459-.0066943 1.0808927m2.426281 2.4995179c-.2461983.271525-.7705785.1986224-1.1543801-.1718419-.3927273-.3622813-.5020661-.876319-.255124-1.147844.2491736-.2722689.7765289-.1956468 1.1633058.1718418.3897521.3615374.5087603.8792947.2461983 1.1478441m3.3471075 1.4513569c-.1085951.3518667-.6136364.511806-1.1223967.3622813-.5080165-.1539881-.8404959-.566111-.7378513-.9216972.1056199-.3540984.6128926-.5207329 1.1253719-.3607935.5072728.1532443.8404959.5623915.7348761.9202094m3.6758677.2692933c.0126447.3704643-.4187603.6776967-.9528099.6843918-.5370248.0119025-.9714049-.2878909-.9773553-.6524039 0-.3741838.4217355-.6784406.9587603-.6873674.5340496-.0104147.9714049.287147.9714049.6553795m3.4207438-.5824769c.063967.3615374-.30719.7327455-.8375206.8316848-.521405.0952197-1.0041322-.1279515-1.0703306-.4865133-.0647107-.3704643.3131405-.7416724.8338017-.8376361.5310743-.0922441 1.0063636.1249759 1.0740495.4924646" fill="#161514"/></g></svg>