<svg xmlns="http://www.w3.org/2000/svg" width="442" height="249" viewBox="0 0 442 249">
  <g fill="none" fill-rule="evenodd" stroke="#fff">
    <rect width="344.47" height="224.47" x="46.765" y="3.765" stroke-width="7.53" rx="17"/>
    <path stroke-width="2" d="m84 26h275v181h-275z"/>
    <rect width="67" height="7" x="189" y="229" stroke-width="2" rx="3.5"/>
    <g stroke-linecap="round" stroke-width="7" transform="translate(4 226)">
      <g transform="translate(5.798)">
        <path d="m414.347467 18.8235214c3.649668 0 7.493309-1.0646742 10.341492-4.673322 1.616415-2.0479975 3.421079-6.15066975 3.421079-8.26784646 0-5.84772088-8.515386-4.70588235-14.23633-4.70588235"/>
        <path stroke-linejoin="round" d="M.57548259 1.17647059h422.40422341M8.6322389 18.8235214l403.9887811.000008"/>
      </g>
      <g transform="matrix(-1 0 0 1 427.051 0)">
        <path d="m413.196502 18.8235214c3.649668 0 7.493309-1.0646742 10.341492-4.673322 1.616415-2.0479975 3.421079-6.15066975 3.421079-8.26784646 0-5.84772088-8.515386-4.70588235-14.236331-4.70588235"/>
        <path stroke-linejoin="round" d="M.57548259 1.08640816h419.26542541M7.48127372 18.8235294h403.98878028"/>
      </g>
    </g>
  </g>
</svg>
