<svg height="91" viewBox="0 0 90 91" width="90" xmlns="http://www.w3.org/2000/svg"><g fill="none" fill-rule="evenodd" transform="translate(0 .75)"><circle cx="45" cy="45" fill="#0971bd" r="45"/><path d="m45.627 42.47442c-3.5154 0-21.627-10.27062-21.627-10.27062v-1.6038c0-1.9872 1.6128-3.6 3.6036-3.6h36.0468c1.9926 0 3.6054 1.6128 3.6054 3.6l-.0288 1.8s-17.9154 10.07442-21.6 10.07442zm0 4.95c3.8538 0 21.6-9.62442 21.6-9.62442l.0288 21.6c0 1.9872-1.6128 3.6-3.6054 3.6h-36.0468c-1.989 0-3.6036-1.6128-3.6036-3.6l.0288-21.6c-.0018 0 18.0828 9.62442 21.5982 9.62442z" fill="#fff"/></g></svg>