<svg height="302" viewBox="0 0 1287 302" width="1287" xmlns="http://www.w3.org/2000/svg"><g fill="none" fill-rule="evenodd" stroke="#fff"><g stroke-linejoin="round" stroke-width="7.529412"><g transform="translate(928 4)"><path d="m172.5 286.5h-161c-6.348 0-11.5-4.241067-11.5-9.466667v-265.0666663c0-5.22560003 5.152-9.4666667 11.5-9.4666667h161c6.348 0 11.5 4.24106667 11.5 9.4666667v265.0666663c0 5.2256-5.152 9.466667-11.5 9.466667z"/><path d="m186 19.5852005v17.1704009"/><path d="m159.25.5h17.5"/><path d="m186 44.5852005v17.1704009"/></g><g stroke-linecap="round" transform="translate(4 4)"><path d="m0 0h399v240h-399z"/><path d="m146 294h106"/><path d="m199 240v54"/></g><g transform="translate(1185 120)"><path d="m90.25 171h-80.5c-3.174 0-5.75-2.5536-5.75-5.7v-159.6c0-3.1464 2.576-5.7 5.75-5.7h80.5c3.174 0 5.75 2.5536 5.75 5.7v159.6c0 3.1464-2.576 5.7-5.75 5.7z"/><path d="m67.25 17h-34.5c-3.174 0-5.75-2.5386667-5.75-5.6666667v-11.3333333h46v11.3333333c0 3.128-2.576 5.6666667-5.75 5.6666667z"/><g stroke-linecap="round"><path d="m98 27.0852005v16.9147995"/><path d="m1 37.5v9.3721993"/><path d="m1 57.7286999v9.3721993"/></g><path d="m2 21.1143499v4.3856501" stroke-linecap="square"/></g></g><rect height="224.47" rx="17" stroke-width="7.53" width="344.47" x="493.765" y="37.765"/><path d="m531 60h275v181h-275z" stroke-width="2"/><rect height="7" rx="3.5" stroke-width="2" width="67" x="636" y="263"/><g stroke-linecap="round" stroke-width="7" transform="translate(451 260)"><g transform="translate(5.797888)"><path d="m414.347467 18.8235214c3.649668 0 7.493309-1.0646742 10.341492-4.673322 1.616415-2.0479975 3.421079-6.15066975 3.421079-8.26784646 0-5.84772088-8.515386-4.70588235-14.23633-4.70588235"/><g stroke-linejoin="round"><path d="m.57548259 1.17647059h422.40422341"/><path d="m8.6322389 18.8235214 403.9887811.000008"/></g></g><g transform="matrix(-1 0 0 1 427.051147 0)"><path d="m413.196502 18.8235214c3.649668 0 7.493309-1.0646742 10.341492-4.673322 1.616415-2.0479975 3.421079-6.15066975 3.421079-8.26784646 0-5.84772088-8.515386-4.70588235-14.236331-4.70588235"/><g stroke-linejoin="round"><path d="m.57548259 1.08640816h419.26542541"/><path d="m7.48127372 18.8235294h403.98878028"/></g></g></g></g></svg>