<svg height="90" viewBox="0 0 90 90" width="90" xmlns="http://www.w3.org/2000/svg" xmlns:xlink="http://www.w3.org/1999/xlink"><linearGradient id="a" x1="66.67%" x2="41.67%" y1="16.67%" y2="75%"><stop offset="0" stop-color="#37aee2"/><stop offset="1" stop-color="#1e96c8"/></linearGradient><linearGradient id="b" x1="61.235%" x2="74.706%" y1="45.561%" y2="71.273%"><stop offset="0" stop-color="#eff7fc"/><stop offset="1" stop-color="#fff"/></linearGradient><g fill="none" fill-rule="evenodd"><circle cx="45" cy="45" fill="url(#a)" r="45"/><path d="m36.75 65.625c-1.45785 0-1.210125-.5504625-1.712925-1.9385625l-4.287075-14.109225 33-19.5772125" fill="#c8daea"/><path d="m36.75 65.625c1.125 0 1.6220625-.5145 2.25-1.125l6-5.83425-7.48425-4.513125" fill="#a9c9dd"/><path d="m37.515 54.15375 18.135 13.398375c2.0694375 1.1418375 3.563025.55065 4.0785-1.9213125l7.381875-34.786125c.755775-3.030075-1.1550375-4.404375-3.134775-3.505575l-43.34625 16.714125c-2.9587875 1.1867625-2.9415375 2.837475-.539325 3.573l11.123625 3.4718625 25.752375-16.246875c1.2157125-.7372125 2.3314875-.3408712 1.4157.4719" fill="url(#b)"/></g></svg>