<svg height="91" viewBox="0 0 91 91" width="91" xmlns="http://www.w3.org/2000/svg"><g fill="none" fill-rule="evenodd" transform="translate(.5 .5)"><path d="m0 45c0-24.852815 20.147185-45 45-45s45 20.147185 45 45-20.147185 45-45 45-45-20.147185-45-45z" fill="#55acee"/><path d="m43.6522549 36.5765637.0944297 1.5571015-1.5738285-.1906655c-5.7287357-.7308844-10.7335103-3.2095358-14.9828472-7.372399l-2.0774536-2.0655429-.5351017 1.525324c-1.1331565 3.4002012-.4091954 6.991068 1.9515473 9.4061643 1.2590628 1.3346584.9757737 1.5253239-1.1961096.7308843-.7554377-.2542206-1.4164457-.4448861-1.4793988-.3495534-.220336.2224431.5351017 3.1142031 1.1331565 4.258196.8183908 1.5888791 2.486649 3.1459807 4.3122901 4.0675306l1.5423519.7308843-1.825641.0317776c-1.762688 0-1.8256411.0317776-1.6367817.6991068.6295314 2.0655429 3.1161804 4.258196 5.8861186 5.2115235l1.9515473.6673292-1.6997348 1.0168826c-2.5181255 1.4617688-5.4769231 2.2879859-8.4357207 2.3515411-1.4164456.0317776-2.5810787.1588879-2.5810787.2542207 0 .3177758 3.8401415 2.0973204 6.074978 2.7964272 6.7045093 2.0655428 14.6680815 1.1757705 20.6486298-2.3515411 4.2493369-2.510429 8.4986738-7.4995094 10.4816977-12.3297018 1.0702034-2.5739842 2.1404068-7.2770663 2.1404068-9.5332747 0-1.4617687.0944297-1.6524342 1.8571176-3.4002012 1.0387268-1.0168827 2.0145005-2.129098 2.2033599-2.4468739.3147657-.603774.2832891-.603774-1.3220159-.0635551-2.6755085.9533274-3.0532273.8262171-1.7312114-.6037741.9757737-1.0168826 2.1404068-2.8599824 2.1404068-3.4002013 0-.0953327-.4721486.0635552-1.0072503.3495534-.5665782.3177759-1.825641.7944396-2.7699381 1.0804378l-1.6997348.5402189-1.5423519-1.0486602c-.8498674-.5719965-2.0459771-1.2075481-2.6755084-1.3982136-1.6053051-.4448861-4.0604776-.381331-5.5083998.1271103-3.9345712 1.4299912-6.4212202 5.1161908-6.1379311 9.1519437z" fill="#fff"/></g></svg>