<svg height="549" viewBox="0 0 305 549" width="305" xmlns="http://www.w3.org/2000/svg"><g fill="none" fill-rule="evenodd" transform="translate(2 4)"><path d="m149.800006 31.5000013 1.35 509.4000197h-127.2375049l-18.11250067-18.03v-507.1200204l11.95324727-15.7500006h60.7217556v21.8209501l13.2750005 9.6790512z" fill="#fff" opacity=".05"/><g stroke="#fff" stroke-linejoin="round" stroke-width="6.776471"><path d="m277.487511 540.900021h-253.5750099c-9.9981003 0-18.11250067-8.07744-18.11250067-18.03v-504.8400203c0-9.95256038 8.11440037-18.0300007 18.11250067-18.0300007h253.5750099c9.998101 0 18.112501 8.07744032 18.112501 18.0300007v504.8400203c0 9.95256-8.1144 18.03-18.112501 18.03z"/><path d="m205.487508 31.5000013h-108.675004c-9.9981004 0-18.1125007-4.7040002-18.1125007-10.5000005v-21.0000008h144.9000057v21.0000008c0 5.7960003-8.1144 10.5000005-18.112501 10.5000005z"/><g stroke-linecap="round"><path d="m299 85.8658093v53.2816207"/><path d="m2 119.145405v29.522429"/><path d="m2 182.145405v29.522429"/></g><path d="m2 66.0211849v13.8147983" stroke-linecap="square"/></g><g transform="translate(33.700002 306.900012)"><circle cx="131.400005" cy="76.500003" opacity=".16" r="6.3" stroke="#fff" stroke-width=".9"/><circle cx="158.400006" cy="76.500003" opacity=".16" r="6.3" stroke="#fff" stroke-width=".9"/><circle cx="185.400007" cy="76.500003" opacity=".16" r="6.3" stroke="#fff" stroke-width=".9"/><circle cx="212.400008" cy="76.500003" opacity=".16" r="6.3" stroke="#fff" stroke-width=".9"/><path d="m116.100005 157.500005h-40.800002c-11.2666094 0-20.4000008-9.066233-20.4000008-20.25 0-11.183766 9.1333914-20.25 20.4000008-20.25h40.800002" fill="#bb86fc" stroke="#bb86fc" stroke-width="3.6"/><path d="m116.550005 117.000005h40.5c11.183768 0 20.250002 9.066234 20.250002 20.25 0 11.183767-9.066234 20.25-20.250002 20.25h-40.5" opacity=".05" stroke="#fff" stroke-width="3.6"/><text fill="#fff" font-family="Roboto-Medium, Roboto" font-size="22.500001" font-weight="400"><tspan x="68.327932" y="145.200005">SIG</tspan></text><g stroke="#fff"><rect height="6.3" opacity=".16" rx="1.8" stroke-width="1.8" width="93.600004" x="115.200005" y="14.400001"/><path d="m116.100005 133.200005h45.900001c.994113 0 1.800001.805888 1.800001 1.8v4.500001c0 .994112-.805888 1.8-1.800001 1.8h-45.900001" opacity=".16" stroke-width="1.8"/><path d="m.45.45h115.200005v33.366668h-115.200005z" fill="#fff" stroke-width=".9"/><path d="m114.750005 1.35h113.400005v31.566668h-113.400005z" opacity=".05" stroke-width="2.7"/><path d="m114.750005 59.850002h113.400005v31.566668h-113.400005z" opacity=".05" stroke-width="2.7"/><path d="m.45 58.950002h115.200005v33.366668h-115.200005z" fill="#fff" stroke-width=".9"/></g><text fill="#000" font-family="Roboto-Medium, Roboto" font-size="22.500001" font-weight="400"><tspan x="23.421095" y="25.5">USER NA</tspan></text><text fill="#000" font-family="Roboto-Medium, Roboto" font-size="22.500001" font-weight="400"><tspan x="24.354933" y="84.000003">PASSWO</tspan></text><path d="m106.492574 145.352544v-15.300001h2.239488l5.860513 14.050977" stroke="#fff" stroke-width="2.7"/></g><g transform="translate(72.400003 99.000004)"><g stroke="#fff" stroke-width="9"><path d="m77.4000031 0c-42.7468414 0-77.4000031 34.6531617-77.4000031 77.4000031 0 42.7468409 34.6531617 77.4000029 77.4000031 77.4000029" fill="#fff" opacity=".16" stroke-linejoin="round"/><path d="m153.900006 0c-42.746841 0-77.400003 34.6531617-77.400003 77.4000031 0 42.7468409 34.653162 77.4000029 77.400003 77.4000029" opacity=".05" stroke-linejoin="round" transform="matrix(-1 0 0 1 230.40001 0)"/><path d="m77.4000031 51.300002c-6.4617319 0-11.7000005 5.2382687-11.7000005 11.7000005s5.2382686 11.7000005 11.7000005 11.7000005" fill="#fff" stroke-linejoin="round"/><path d="m89.1000035 51.300002c-6.4617318 0-11.7000004 5.2382687-11.7000004 11.7000005s5.2382686 11.7000005 11.7000004 11.7000005" fill="#fff" opacity=".16" stroke-linejoin="round" transform="matrix(-1 0 0 1 166.500006 0)"/></g><path d="m61.6980149 77.5679279c-3.9871428 1.6301085-7.6087051 4.0244819-10.6593506 7.0323031-6.1290592 6.0430209-9.6386627 14.2241751-9.6386627 22.949814 0 1.242618 1.0073339 2.249959 2.2499431 2.249959 1.2426093 0 2.2499431-1.007341 2.2499431-2.249959 0-7.506241 3.0165611-14.5380761 8.2980951-19.7454691 2.6335482-2.596579 5.7606614-4.6640505 9.2029357-6.0713943 1.1501949-.4702471 1.7014042-1.7838816 1.2311604-2.9340847-.4702439-1.150203-1.7838691-1.7014162-2.9340641-1.231169z" fill="#fff" fill-rule="nonzero"/><path d="m91.3990876 81.7331816c3.4422743 1.4073438 6.5693875 3.4748153 9.2029354 6.0713943 5.281534 5.207393 8.298095 12.2392281 8.298095 19.7454691 0 1.242618 1.007334 2.249959 2.249943 2.249959 1.24261 0 2.249944-1.007341 2.249944-2.249959 0-8.7256389-3.509604-16.9067931-9.638663-22.949814-3.050646-3.0078212-6.6722079-5.4021946-10.6593508-7.0323031-1.1501949-.4702472-2.4638202.080966-2.934064 1.231169-.4702439 1.1502031.0809654 2.4638376 1.2311604 2.9340847z" fill="#fff" fill-rule="nonzero" opacity=".16"/></g></g></svg>