<svg height="350" viewBox="0 0 1296 350" width="1296" xmlns="http://www.w3.org/2000/svg"><g fill="none" fill-rule="evenodd" transform="translate(-4 -11)"><g stroke-width="4" transform="translate(534 67)"><path d="m209.402765 1.001167h53.602143l-131.8129 226.9943-131.192008-226.9943 52.3506912-1.001167 78.8413168 137.0111z" stroke="#4ab885"/><path d="m161.280094.331067 48.485704.6701-78.578698 136.3299-78.8413165-136.3299h48.3014595l30.118555 50.8025106z" stroke="#fff"/></g><g font-family="SourceCodePro-Regular, Source Code Pro" font-size="36"><text><tspan fill="#4ab885" x="1108.3" y="261">Vue</tspan> <tspan fill="#121212" x="1173.1" y="261"/> <tspan fill="#fff" x="1194.7" y="261">CLI 3</tspan></text><text><tspan fill="#4ab885" x="994" y="35">Vue</tspan> <tspan fill="#121212" x="1058.8" y="35"/> <tspan fill="#fff" x="1080.4" y="35">Router</tspan></text><text><tspan fill="#4ab885" x="848.4" y="171">Vue</tspan> <tspan fill="#121212" x="913.2" y="171"/> <tspan fill="#fff" x="934.8" y="171">DevTools</tspan></text><text><tspan fill="#4ab885" x="76.4" y="360">Vue</tspan> <tspan fill="#121212" x="141.2" y="360"/> <tspan fill="#fff" x="162.8" y="360">Material</tspan></text><text><tspan fill="#4ab885" x="191" y="70">Vue</tspan> <tspan fill="#121212" x="255.8" y="70"/> <tspan fill="#fff" x="277.4" y="70">Native</tspan></text><text><tspan fill="#4ab885" x="745.4" y="296">Keen</tspan> <tspan fill="#121212" x="831.8" y="296"/> <tspan fill="#fff" x="853.4" y="296">UI</tspan></text><text fill="#4ab885"><tspan x="994.4" y="350">Nuxt.js</tspan></text><text fill="#4ab885"><tspan x="331.4" y="251">Vuetify</tspan></text><text fill="#4ab885"><tspan x=".4" y="206">Element</tspan></text></g></g></svg>