<svg height="91" viewBox="0 0 91 91" width="91" xmlns="http://www.w3.org/2000/svg"><g fill="none" fill-rule="evenodd" transform="translate(.5 .25)"><circle cx="45" cy="45" fill="#25d366" r="45"/><path d="m46.4832656 70.0359689h-.0110704c-4.478374-.0015447-8.8788174-1.1251674-12.7871675-3.256997l-14.1850277 3.7210281 3.7961525-13.8659162c-2.3416528-4.0581098-3.5738171-8.6612965-3.571809-13.3773758.0058699-14.7535328 12.0096888-26.756708 26.7586647-26.756708 7.1581898.0030894 13.876652 2.7897477 18.9286286 7.8476457 5.0519767 5.0576406 7.8327136 11.7804795 7.8298816 18.9301734-.0059214 14.7501859-12.0049774 26.7521254-26.7582528 26.7581498zm-12.1410149-8.1011843.8121317.4820013c3.4147119 2.0263516 7.3289834 3.0985611 11.3198724 3.1001058h.0090108c12.25831 0 22.2353396-9.9772613 22.2402312-22.2406173.002317-5.9427599-2.3088278-11.5304937-6.5078666-15.7344242-4.1990389-4.2039304-9.7831684-6.5202242-15.7236112-6.5222839-12.2677842 0-22.2449425 9.9762573-22.2498083 22.2386865-.001725 4.2024372 1.1741089 8.2950969 3.4004233 11.8360632l.528806.8414812-2.2467818 8.2071zm25.621706-12.2939156c-.1670862-.2788975-.6127352-.4462154-1.2813376-.7810057-.6686023-.3346359-3.9557469-1.9519223-4.5687396-2.1752618-.6127353-.2230305-1.0586418-.3344814-1.5042909.3346359-.445649.6692459-1.7269866 2.1754162-2.1170261 2.6216316-.3900395.4460868-.7800789.5021083-1.4484238.167318-.6686023-.3346359-2.822959-1.0405945-5.3768036-3.318528-1.9876309-1.7729418-3.3294697-3.9623119-3.7194834-4.6316866s-.0415785-1.0310944.2931346-1.3644945c.3008067-.2996739.6686538-.7811088 1.0029293-1.1714057.3342754-.3902969.4457005-.6693747.6685765-1.1152812.2228503-.4464214.1114509-.8367183-.0557383-1.1714057-.1671377-.3346873-1.5042651-3.6256937-2.0614165-4.964443-.5427599-1.3037359-1.0939385-1.127124-1.5043166-1.1477201-.3895504-.0195664-.8357658-.0236856-1.2814406-.0236856-.4457006 0-1.1700927.1673437-1.782931.8367183-.6128382.6693747-2.3400566 2.2869444-2.3400566 5.5776933 0 3.2910063 2.3957434 6.4702786 2.7300704 6.9164426.3342754.4464214 4.7145603 7.1995365 11.4216688 10.0956376 1.5951714.6889152 2.8404657 1.1002975 3.8115739 1.40839 1.6016076.509008 3.0592997.4371789 4.2111391.2649437 1.2846845-.1918788 3.9557469-1.6172865 4.51313-3.1790148.5568683-1.5620373.5568683-2.9007094.389782-3.1794783z" fill="#fdfdfd"/></g></svg>